Coordinates
version=1
nRows=19
nColumns=27
inDegrees=yes

Units are S.I. units (second, meters, Newtons, ...)
If the header above contains a line with 'inDegrees', this indicates whether rotational values are in degrees (yes) or radians (no).

endheader
time	pelvis_rotation	pelvis_tilt	pelvis_list	pelvis_tx	pelvis_ty	pelvis_tz	hip_flexion_r	hip_adduction_r	hip_rotation_r	knee_angle_r	knee_rotation_r	knee_adduction_r	knee_angle_r_beta	ankle_angle_r	subtalar_angle_r	mtp_angle_r	hip_flexion_l	hip_adduction_l	hip_rotation_l	knee_angle_l	knee_rotation_l	knee_adduction_l	knee_angle_l_beta	ankle_angle_l	subtalar_angle_l	mtp_angle_l
      3.27500000	      7.35055580	    -39.97777089	      6.50353642	     -0.04477021	      0.52297765	     -1.17819576	    128.82158625	    -48.13279387	     15.67006793	     98.77971766	      0.00000000	      9.90707839	      1.72403131	     14.13059870	      0.00000000	      0.00000000	    120.43571027	    -37.27999469	      4.49157367	     93.07131237	      0.00000000	     -9.93824886	      1.62440084	      6.23291634	      0.00000000	      0.00000000
      3.28000000	      7.31108029	    -39.93263440	      6.45772613	     -0.04458542	      0.52141215	     -1.17819763	    129.03789575	    -48.12597522	     15.86481945	     99.01185654	      0.00000000	      9.90741799	      1.72808290	     14.20891762	      0.00000000	      0.00000000	    120.67603074	    -37.31326159	      4.72571581	     93.31713085	      0.00000000	     -9.93844717	      1.62869118	      6.28003725	      0.00000000	      0.00000000
      3.28500000	      7.25926663	    -39.87887735	      6.40435839	     -0.04437905	      0.51984983	     -1.17819149	    129.23382348	    -48.11232789	     16.05301205	     99.24243944	      0.00000000	      9.90773420	      1.73210733	     14.26620200	      0.00000000	      0.00000000	    120.90389110	    -37.35568531	      4.96106609	     93.56397917	      0.00000000	     -9.93860432	      1.63299950	      6.38145533	      0.00000000	      0.00000000
      3.29000000	      7.20583571	    -39.81855824	      6.36341400	     -0.04415968	      0.51829929	     -1.17818726	    129.43061879	    -48.08500043	     16.25418899	     99.47234362	      0.00000000	      9.90803621	      1.73611991	     14.34650250	      0.00000000	      0.00000000	    121.11763305	    -37.40557039	      5.18305389	     93.81074304	      0.00000000	     -9.93880117	      1.63730634	      6.43317042	      0.00000000	      0.00000000
      3.29500000	      7.18599773	    -39.74922070	      6.33502834	     -0.04391813	      0.51667309	     -1.17821674	    129.66329135	    -48.09800778	     16.49000182	     99.71340758	      0.00000000	      9.90841186	      1.74032727	     14.39177477	      0.00000000	      0.00000000	    121.32763812	    -37.41592698	      5.40943016	     94.06951575	      0.00000000	     -9.93895673	      1.64182278	      6.53824959	      0.00000000	      0.00000000
      3.30000000	      7.13670380	    -39.68390401	      6.29593854	     -0.04368911	      0.51510759	     -1.17825521	    129.86178024	    -48.08019409	     16.70125366	     99.93690410	      0.00000000	      9.90881519	      1.74422802	     14.43322015	      0.00000000	      0.00000000	    121.53227087	    -37.44925619	      5.63604214	     94.31967759	      0.00000000	     -9.93914884	      1.64618892	      6.62515758	      0.00000000	      0.00000000
      3.30500000	      7.08640009	    -39.60874758	      6.25278448	     -0.04344706	      0.51347491	     -1.17826446	    130.05796173	    -48.05887055	     16.91335542	    100.17834294	      0.00000000	      9.90908662	      1.74844192	     14.53564680	      0.00000000	      0.00000000	    121.74447605	    -37.48246210	      5.87766662	     94.57551508	      0.00000000	     -9.93927516	      1.65065413	      6.70947381	      0.00000000	      0.00000000
      3.31000000	      7.04761089	    -39.55060556	      6.22735986	     -0.04320306	      0.51183809	     -1.17830975	    130.29624000	    -48.04469958	     17.15207817	    100.41782763	      0.00000000	      9.90943857	      1.75262172	     14.58005847	      0.00000000	      0.00000000	    121.95837607	    -37.50294631	      6.10587863	     94.83354765	      0.00000000	     -9.93941912	      1.65515765	      6.79915162	      0.00000000	      0.00000000
      3.31500000	      6.99882245	    -39.47119095	      6.18009090	     -0.04294126	      0.51021055	     -1.17835107	    130.48502872	    -48.03505900	     17.35816797	    100.65323023	      0.00000000	      9.90976777	      1.75673027	     14.65634572	      0.00000000	      0.00000000	    122.16707870	    -37.52912889	      6.34981355	     95.09110767	      0.00000000	     -9.93958469	      1.65965292	      6.87853808	      0.00000000	      0.00000000
      3.32000000	      6.94665392	    -39.37851577	      6.14498105	     -0.04267195	      0.50858665	     -1.17839637	    130.67822758	    -48.01456532	     17.58589503	    100.88369648	      0.00000000	      9.91014300	      1.76075267	     14.70401144	      0.00000000	      0.00000000	    122.34917701	    -37.55860784	      6.58359323	     95.34727832	      0.00000000	     -9.93972995	      1.66412394	      6.96872864	      0.00000000	      0.00000000
      3.32500000	      6.90084565	    -39.31860267	      6.10512671	     -0.04241007	      0.50694883	     -1.17845495	    130.89595695	    -47.99983356	     17.80747232	    101.11978754	      0.00000000	      9.91052933	      1.76487323	     14.76671984	      0.00000000	      0.00000000	    122.57099007	    -37.57269826	      6.82878171	     95.60654983	      0.00000000	     -9.93989557	      1.66864908	      7.06443590	      0.00000000	      0.00000000
      3.33000000	      6.85193650	    -39.23299366	      6.07284197	     -0.04212902	      0.50528992	     -1.17851815	    131.10074697	    -47.97989489	     18.04194412	    101.35749595	      0.00000000	      9.91088712	      1.76902203	     14.81864957	      0.00000000	      0.00000000	    122.76309100	    -37.59884073	      7.06153446	     95.86839517	      0.00000000	     -9.94008336	      1.67321914	      7.15292730	      0.00000000	      0.00000000
      3.33500000	      6.79397448	    -39.16457226	      6.02428922	     -0.04186063	      0.50364929	     -1.17858160	    131.30098417	    -47.95751624	     18.25179234	    101.58790382	      0.00000000	      9.91130080	      1.77304340	     14.88356744	      0.00000000	      0.00000000	    122.98360975	    -37.62604489	      7.31163128	     96.12695526	      0.00000000	     -9.94025954	      1.67773187	      7.23901376	      0.00000000	      0.00000000
      3.34000000	      6.74125194	    -39.06922566	      5.97911782	     -0.04154241	      0.50199981	     -1.17863235	    131.48092254	    -47.94639068	     18.46820515	    101.82392712	      0.00000000	      9.91166060	      1.77716279	     14.94697096	      0.00000000	      0.00000000	    123.17375991	    -37.65182884	      7.55660099	     96.38621725	      0.00000000	     -9.94044218	      1.68225684	      7.32386188	      0.00000000	      0.00000000
      3.34500000	      6.69081869	    -39.00939380	      5.92735481	     -0.04123947	      0.50035153	     -1.17868824	    131.68697043	    -47.93511716	     18.67702115	    102.05525220	      0.00000000	      9.91209261	      1.78120017	     15.00127429	      0.00000000	      0.00000000	    123.41171394	    -37.67456748	      7.81245320	     96.64588414	      0.00000000	     -9.94063501	      1.68678889	      7.39607243	      0.00000000	      0.00000000
      3.35000000	      6.62667940	    -38.93251839	      5.87028032	     -0.04091744	      0.49871419	     -1.17874591	    131.86785736	    -47.91738783	     18.87363969	    102.28654148	      0.00000000	      9.91246731	      1.78523693	     15.06382108	      0.00000000	      0.00000000	    123.62703048	    -37.71235549	      8.06608494	     96.90522462	      0.00000000	     -9.94084146	      1.69131523	      7.48572773	      0.00000000	      0.00000000
      3.35500000	      6.59231133	    -38.82963189	      5.81546947	     -0.04057282	      0.49705477	     -1.17878221	    132.03830734	    -47.93373758	     19.08517057	    102.51874205	      0.00000000	      9.91277414	      1.78928959	     15.07798902	      0.00000000	      0.00000000	    123.82685294	    -37.72043055	      8.32514415	     97.16024299	      0.00000000	     -9.94102331	      1.69576614	      7.52894807	      0.00000000	      0.00000000
      3.36000000	      6.52508316	    -38.77844129	      5.75854973	     -0.04025182	      0.49546418	     -1.17883555	    132.22343563	    -47.90470347	     19.26919497	    102.74469043	      0.00000000	      9.91327526	      1.79323314	     15.19141441	      0.00000000	      0.00000000	    124.06129323	    -37.76758908	      8.57034575	     97.41257863	      0.00000000	     -9.94124073	      1.70017023	      7.63541757	      0.00000000	      0.00000000
      3.36500000	      6.48363489	    -38.68398712	      5.71211502	     -0.03987865	      0.49383650	     -1.17886056	    132.39003555	    -47.90215660	     19.48236773	    102.97685008	      0.00000000	      9.91378592	      1.79728509	     15.26173177	      0.00000000	      0.00000000	    124.25656041	    -37.80183358	      8.80739720	     97.66314787	      0.00000000	     -9.94148187	      1.70454349	      7.71201813	      0.00000000	      0.00000000
